<svg width="36" height="36" viewBox="0 0 36 36" fill="none" xmlns="http://www.w3.org/2000/svg">
<path fill-rule="evenodd" clip-rule="evenodd" d="M3.59961 8.5502C3.59961 7.80461 4.20402 7.2002 4.94961 7.2002H31.0496C31.7952 7.2002 32.3996 7.80461 32.3996 8.5502C32.3996 9.29578 31.7952 9.9002 31.0496 9.9002H4.94961C4.20402 9.9002 3.59961 9.29578 3.59961 8.5502ZM3.59961 18.0002C3.59961 17.2546 4.20402 16.6502 4.94961 16.6502H31.0496C31.7952 16.6502 32.3996 17.2546 32.3996 18.0002C32.3996 18.7458 31.7952 19.3502 31.0496 19.3502H4.94961C4.20402 19.3502 3.59961 18.7458 3.59961 18.0002ZM3.59961 27.4502C3.59961 26.7046 4.20402 26.1002 4.94961 26.1002H31.0496C31.7952 26.1002 32.3996 26.7046 32.3996 27.4502C32.3996 28.1958 31.7952 28.8002 31.0496 28.8002H4.94961C4.20402 28.8002 3.59961 28.1958 3.59961 27.4502Z" fill="#102E69"/>
</svg>
